<svg width="24" height="24" viewBox="0 0 24 24" fill="none" xmlns="http://www.w3.org/2000/svg">
  <path d="M17.0351 12.9916C17.0171 10.7789 18.8734 9.18297 19 9.11719C17.7905 7.34297 15.9342 7.10156 15.2784 7.08359C13.7342 6.92344 12.2439 7.99687 11.4604 7.99687C10.6589 7.99687 9.42338 7.10156 8.10807 7.13751C6.38338 7.17344 4.78026 8.15625 3.91291 9.71875C2.12557 12.9197 3.43135 17.6437 5.15604 20.2437C6.00541 21.5131 7.00619 22.9316 8.32151 22.8713C9.60932 22.8113 10.0913 22.0457 11.6355 22.0457C13.1617 22.0457 13.6258 22.8713 14.9771 22.8354C16.3643 22.8113 17.2317 21.5492 18.0451 20.2617C19.0099 18.7895 19.4021 17.3529 19.4201 17.2926C19.384 17.2805 17.0531 16.3492 17.0351 12.9916Z" fill="black"/>
  <path d="M14.7275 5.45156C15.4192 4.59297 15.8834 3.41875 15.7553 2.22656C14.7275 2.27187 13.4842 2.91406 12.7565 3.75469C12.1107 4.49531 11.5548 5.70547 11.7009 6.86172C12.8363 6.95547 14.0176 6.31016 14.7275 5.45156Z" fill="black"/>
</svg> 